<?xml version="1.0" encoding="UTF-8"?>
<!DOCTYPE svg PUBLIC "-//W3C//DTD SVG 1.1//EN" "http://www.w3.org/Graphics/SVG/1.1/DTD/svg11.dtd">
<!-- Creator: CorelDRAW -->
<svg xmlns="http://www.w3.org/2000/svg" xml:space="preserve" width="210mm" height="297mm" version="1.1" style="shape-rendering:geometricPrecision; text-rendering:geometricPrecision; image-rendering:optimizeQuality; fill-rule:evenodd; clip-rule:evenodd"
viewBox="0 0 21000 29700"
 xmlns:xlink="http://www.w3.org/1999/xlink"
 xmlns:xodm="http://www.corel.com/coreldraw/odm/2003">
 <defs>
  <style type="text/css">
   <![CDATA[
    .str0 {stroke:#FEFEFE;stroke-width:75;stroke-miterlimit:22.9256}
    .fil2 {fill:#FEFEFE}
    .fil3 {fill:#E31E24}
    .fil1 {fill:#008DD2}
    .fil0 {fill:#008DD2}
    .fil4 {fill:#E31E24;fill-rule:nonzero}
   ]]>
  </style>
   <clipPath id="id0">
    <path d="M1002.69 7006.52l17314.47 268.83 0 14385.86 -17314.47 -268.82 0 -14385.87z"/>
   </clipPath>
   <clipPath id="id1">
    <path d="M7939.93 10986.93l11936.07 185.31 0 4602.06 -11936.07 -185.31 0 -4602.06z"/>
   </clipPath>
   <clipPath id="id2">
    <path d="M1959.16 7393.76l16146.41 250.69 0 13296.67 -16146.41 -250.69 0 -13296.67z"/>
   </clipPath>
   <clipPath id="id3">
    <path d="M12291.67 15104.49l7207.56 111.9 0 1611.01 -7207.56 -111.9 0 -1611.01z"/>
   </clipPath>
 </defs>
 <g id="Слой_x0020_1">
  <metadata id="CorelCorpID_0Corel-Layer"/>
  <g style="clip-path:url(#id0)">
   <image x="1002.69" y="7006.52" width="17314.47" height="14654.69" xlink:href="Логотип RGZ project_Images\Логотип RGZ project_ImgID1.png"/>
  </g>
  <path class="fil0" d="M16071.68 17237.41c217,1085.08 -117.66,1927.65 -1068.39,2306.44 -1657.07,763.97 -5861.19,-495.01 -9482.46,-3938.31 -3621.26,-3443.3 -3125.67,-6279.53 -1866.45,-6703.93 1664.89,-604.89 4087.06,137.81 6727.07,1819.34 -2204.95,-1239.06 -3750.11,-2001.63 -5696.7,-1613.33 -1946.6,388.33 -1322.54,3356.55 1504.65,6082.3 2827.2,2725.7 6724.49,4462.82 8730.86,3866.81 853.71,-253.62 1225.84,-965.47 1151.42,-1819.32z"/>
  <g style="clip-path:url(#id1)">
   <image x="7939.93" y="10986.93" width="11936.07" height="4787.37" xlink:href="Логотип RGZ project_Images\Логотип RGZ project_ImgID2.png"/>
  </g>
  <path class="fil1 str0" d="M15864.43 12388.81l1430.02 5.1 -1410.06 2185.34c-87.94,137.43 -161.67,208.49 -136.6,382.25l3019.72 2.08c109.83,0.36 113.42,-1.42 112.29,-96.02l-7.78 -659.22 -1579.5 -7.53 1522.78 -2369.67 86.25 -161.41c8.72,-16.29 -0.97,-26.76 -25.52,-26.88l-2991.89 -16.42 -19.71 762.38zm-195.66 1569.27l26.42 -807.45 -1683.99 -10.44 0.87 607.97 726.88 5.46 -5.09 67.39c-409.27,628.86 -1355.18,410.29 -1625.57,53.89 -512.41,-675.36 58.75,-1784.11 1181.19,-1450.32 278.58,112.79 317.96,204.54 450.16,348.12l962.38 5.83c-18.47,-145.77 -24.51,-160.77 -81.77,-295.95 -725.4,-1431.33 -3625.4,-1116.82 -3735.13,694.85 -92.82,1532.34 1633.48,2194.83 3019.42,1631.91 265.27,-107.76 786.09,-539.52 764.23,-851.26zm-6123.91 975.08l-1.66 -2544.37c185.22,-2.48 572.84,0.51 743.42,7.42 476.19,34.5 500.98,568.58 186.53,759.24 -93.98,56.98 -240.15,62.63 -395.27,61.33 -108.33,-0.91 -426.09,-8.7 -534.17,-5.01l0.36 549.01 607.55 -0.32 637.85 1136.5 992.89 3.47 -652.18 -1132.77c908.59,-576.12 792.53,-2144.53 -1024.02,-2142.61 -517.82,0.55 -1039.35,-5.96 -1556.65,1.55l54.03 3318.15 941.32 -11.59z"/>
  <g style="clip-path:url(#id2)">
   <image x="1959.16" y="7393.76" width="16146.41" height="13547.36" xlink:href="Логотип RGZ project_Images\Логотип RGZ project_ImgID3.png"/>
  </g>
  <path class="fil2" d="M16046.82 17051.65c158.2,965.74 -185.15,1695.17 -1080.88,1990.56 -1972.93,650.58 -5878.31,-1050.8 -8722.97,-3800.28 -2844.65,-2749.45 -3551.26,-5505.72 -1578.21,-6156.42 1471.39,-485.19 3948.27,399.06 6327.67,1989.28 -1953.84,-1230.96 -3415.47,-1658.71 -5173.84,-1655.54 -1758.35,3.18 -2396.73,1980.57 990.07,5444.15 2511.6,2518.66 6222.67,4120.8 8104.97,3676.76 800.94,-188.96 1168.42,-732.49 1133.19,-1488.51z"/>
  <path class="fil3" d="M16071.69 17237.41c235.63,1202.79 -183.22,2438.59 -1201.53,2886.65 -2778.84,905.07 -7349.65,-1740.8 -10119.16,-4332.17 -2769.5,-2591.4 -3859.13,-6371.02 -1775.43,-7261.4 1695.86,-689.68 4029.3,12.16 6896.06,1876.1 -2350.1,-1436.68 -4773.86,-2072.5 -6217.25,-1504.99 -1443.41,567.53 -1455.95,3439.09 1614.04,6460.52 3070.02,3021.4 7324.85,4935.01 9503.54,4274.35 927.03,-281.14 1380.52,-1452.58 1299.73,-2399.06z"/>
  <g style="clip-path:url(#id3)">
   <image x="12291.67" y="15104.49" width="7207.56" height="1722.91" xlink:href="Логотип RGZ project_Images\Логотип RGZ project_ImgID4.png"/>
  </g>
  <path class="fil4" d="M13518.18 15942.43c0,100.19 -38.25,180.48 -115.17,241.07 -76.54,60.59 -183.9,90.87 -322.12,91.09 -55.52,-0.22 -104.5,-5.71 -147.26,-17.16 -42.38,-11.43 -79.39,-27.97 -110.67,-49.99l0 312.25 -338.97 0 0 -929.77 311 0 14.39 68.84c32.49,-26.05 70.37,-46.17 114.79,-60.16 44.01,-13.97 95.44,-21.17 154.27,-21.17 139.85,0 248.03,32.4 324.57,96.81 76.92,64.61 115.17,149.77 115.17,255.26l0 12.93zm-339.77 -12.93c0,-64.19 -15.26,-115.87 -45.7,-155.28 -30.84,-39.19 -78.16,-58.88 -142.33,-58.88 -38.67,0 -71.97,5.08 -99.97,15.25 -28.36,9.95 -50.59,24.15 -67.45,42.37l0 316.48c16.86,15.88 39.09,27.76 67.45,36.02 28,8.25 61.73,12.49 101.23,12.49 65.8,0 113.53,-17.37 142.73,-51.89 29.23,-34.53 44.04,-82.41 44.04,-143.63l0 -12.93zm1127.95 -188.11l-115.6 -1.91c-37.85,0 -69.53,5.29 -94.63,15.46 -25.52,10.39 -44.83,25 -58.41,43.44l0 463.08 -338.98 0 0 -671.54 317.17 0 13.16 94.91c25.1,-33.9 56.78,-60.16 95.84,-79.03 39.1,-18.85 83.93,-28.37 134.52,-28.37 15.25,0 29.22,0.84 41.98,2.32 13.16,1.48 26.31,3.19 39.89,5.31l-34.94 156.33zm93.76 178.16c0,-101.05 46.88,-183.24 140.28,-246.8 93.79,-63.55 225.43,-95.32 394.89,-95.32 168.68,0 300.31,31.77 395.34,95.32 94.62,63.56 141.9,145.75 141.9,246.8l0 14.18c0,101.06 -46.88,183.04 -141.51,246.17 -94.19,63.13 -225.42,94.47 -393.68,94.69 -170.29,-0.22 -302.31,-31.56 -396.12,-94.49 -94.22,-62.9 -141.1,-144.88 -141.1,-246.37l0 -14.18zm338.54 14.18c0,62.5 15.23,112.08 45.25,148.93 30.02,36.86 81.45,55.29 153.43,55.29 69.12,0 119.31,-18.43 149.77,-55.29 30.41,-36.85 45.65,-86.43 45.65,-148.93l0 -14.18c0,-61.64 -15.24,-111.22 -45.65,-148.71 -30.46,-37.5 -81.05,-56.15 -151.82,-56.15 -70.74,0 -121.36,18.86 -151.38,56.56 -30.02,37.5 -45.25,87.07 -45.25,148.3l0 14.18zm1280.98 -343.81l0 694.41c0,79.02 -36.62,140.24 -109.41,183.45 -73.22,43.22 -174.43,64.82 -304.01,64.82 -27.96,0 -53.87,-0.83 -76.94,-2.75 -23.42,-1.91 -49.33,-4.65 -78.56,-8.25l15.65 -134.74c18.52,2.34 34.95,4.45 49.76,5.94 14.41,1.26 30.46,2.11 48.14,2.11 36.19,0 64.58,-9.31 84.73,-27.96 20.57,-18.63 30.87,-46.19 30.87,-82.62l0 -694.41 339.77 0zm-5.76 -164.39l-341.01 0 0 -132.18 341.01 0 0 132.18zm731.41 849.06c-171.96,-0.22 -305.24,-30.73 -399.84,-91.94 -95.01,-61.22 -142.33,-140.03 -142.33,-236.41l0 -25.42c0,-101.47 45.67,-184.08 136.57,-247.64 91.31,-63.76 219.67,-95.75 385.47,-95.75 153.43,0 271.08,27.11 352.95,81.33 81.84,54.24 122.99,127.97 122.99,220.95l0 95.55 -658.21 0c5.76,49.79 27.57,89.18 65.83,118.63 38.28,29.45 97.08,44.06 176.47,44.06 67.49,0 123.84,-4.02 169.51,-12.07 45.25,-8.05 94.18,-20.76 146.43,-38.13l87.61 109.09c-46.49,22.03 -109.41,40.47 -188.39,55.3 -78.99,14.83 -164.14,22.23 -255.06,22.45zm-20.13 -559.9c-57.2,0 -99.58,12.93 -127.54,38.77 -27.55,25.85 -44.86,61.44 -52.25,106.34l322.91 0 0 -15.46c0,-40.88 -11.1,-72.87 -32.89,-95.54 -22.2,-22.66 -58.82,-34.11 -110.23,-34.11zm1130 423.26c48.57,0 84.74,-9.1 109.86,-27.54 25.08,-18.43 37.41,-44.91 37.41,-79.22l307.29 0 3.71 3.8c2.45,69.92 -39.88,127.32 -127.12,172.24 -87.21,44.91 -197.44,67.14 -331.15,67.36 -170.3,-0.22 -301.1,-31.56 -392.02,-94.69 -91.32,-63.13 -137,-144.68 -137,-244.89l0 -18c0,-99.37 45.68,-180.7 137,-244.26 90.92,-63.55 221.31,-95.32 391.21,-95.32 141.09,0 253.79,23.29 337.32,69.9 83.5,46.61 124.21,109.32 121.76,188.33l-2.48 3.17 -308.52 0c0,-37.28 -12.33,-67.36 -37.41,-90.03 -25.12,-22.66 -61.72,-34.11 -110.67,-34.11 -70.77,0 -120.13,18.43 -147.27,55.5 -27.16,37.08 -41.15,86.01 -41.15,146.82l0 18c0,62.5 13.99,111.86 41.15,148.29 27.14,36.44 76.91,54.65 148.08,54.65zm1028.01 -714.96l0 166.93 177.29 0 0 124.77 -177.29 0 0 341.92c0,28.6 8.22,48.93 24.25,60.79 16.04,12.08 38.28,18 66.24,18 16.03,0 29.21,-0.41 39.92,-1.47 10.28,-1.07 23.02,-2.76 38.24,-5.3l26.73 129.02c-32.07,5.92 -62.92,10.15 -92.15,12.69 -29.6,2.77 -62.51,4.03 -99.55,4.25 -111.05,-0.22 -195.82,-17.59 -255.04,-52.33 -58.82,-34.73 -88.44,-89.4 -88.44,-164.39l0 -343.18 -157.97 0 0 -124.77 157.97 0 0 -166.93 339.8 0z"/>
 </g>
</svg>
