<!-- icon666.com - MILLIONS OF FREE VECTOR ICONS --><svg id="Layer_1" enable-background="new 0 0 468 468" viewBox="0 0 468 468" xmlns="http://www.w3.org/2000/svg"><g><path id="XMLID_689_" d="m419.915 109.09c4.078 225.114-140.168 320.261-177.272 340.468-5.448 2.967-11.957 3.251-17.63.739-37.96-16.806-182.476-98.826-176.853-341.207l.006-.001c46.551-7.6 80.534-46.298 80.344-91.491l-.007-1.598h211.068l-.007 1.605c-.187 45.193 33.8 83.889 80.351 91.485z" fill="#fff" style="fill: rgb(255, 213, 0);"></path><path id="XMLID_690_" d="m322.643 369.558c-5.448 2.967-11.957 3.251-17.63.739-37.96-16.806-182.476-98.826-176.853-341.207l.006-.001.181-6.054c-2.432 42.826-35.51 78.761-80.181 86.054l-.006.001c-5.623 242.38 138.893 324.401 176.854 341.207 5.673 2.511 12.182 2.228 17.63-.739 18.93-10.309 65.744-40.141 106.525-96.77-11.051 7.869-20.301 13.38-26.526 16.77z" fill="#e6e7e8" style="fill: rgb(255, 255, 255);"></path><path id="XMLID_691_" d="m218.504 464.203c-135.672-63.452-189.632-213.964-186.365-355.219.168-7.3 5.273-13.556 12.399-15.198 38.264-8.824 68.242-36.342 67.948-77.743-.037-8.734 7.253-16.043 16.002-16.043h211.087c8.747 0 16.036 7.306 16.001 16.039-.847 38.95 29.093 71.355 66.939 77.549 7.628 1.248 13.271 7.762 13.41 15.477 2.518 139.437-58.87 284.587-185.607 353.814-5.335 2.914-15.074 9.152-31.814 1.324zm13.006-29.195c1.106.49 2.363.433 3.45-.16 39.816-21.749 167.672-107.726 169.04-312.731-41.371-11.918-73.701-47.181-79.494-90.165h-180.949c-5.798 43.016-38.169 78.295-79.579 90.19-.224 122.584 47.445 259.539 167.532 312.866 1.106.491-16.902-7.505 0 0z" fill="#3e4d6c" style="fill: rgb(245, 154, 25);"></path></g></svg>